/* XPM */
static char *ncspot[] = {
/* columns rows colors chars-per-pixel */
"32 32 108 2 ",
"   c #282828",
".  c #2F2F2F",
"X  c #2F3130",
"o  c #2E3530",
"O  c #2E3932",
"+  c #2F3E35",
"@  c #323232",
"#  c #323533",
"$  c #333534",
"%  c #373737",
"&  c #313934",
"*  c #333835",
"=  c #363937",
"-  c #373A39",
";  c #353D38",
":  c #393939",
">  c gray24",
",  c #2D4A37",
"<  c #2F4D3A",
"1  c #324237",
"2  c #37423B",
"3  c #314638",
"4  c #34473B",
"5  c #37473C",
"6  c #3A403C",
"7  c #39443D",
"8  c #304D3A",
"9  c #334E3D",
"0  c #2F513B",
"q  c #2E563C",
"w  c #2F5A3E",
"e  c #33533F",
"r  c #34533F",
"t  c #32553E",
"y  c #31593F",
"u  c #355741",
"i  c #335840",
"p  c #305E41",
"a  c #2F6241",
"s  c #2D6742",
"d  c #296940",
"f  c #2D6A43",
"g  c #2A6D42",
"h  c #2C6C43",
"j  c #2F6F46",
"k  c #306142",
"l  c #306E46",
"z  c #2B7144",
"x  c #2E7045",
"c  c #2C7747",
"v  c #2B7A47",
"b  c #297E47",
"n  c #2E7949",
"m  c #2A7F48",
"M  c #2C7D49",
"N  c #414141",
"B  c #7E7E7E",
"V  c #2A8149",
"C  c #2C814A",
"Z  c #28874A",
"A  c #278B4B",
"S  c #268E4B",
"D  c #298A4B",
"F  c #288E4C",
"G  c #2A8F4E",
"H  c #2C8F4F",
"J  c #27934E",
"K  c #25974E",
"L  c #2B914F",
"P  c #259B4F",
"I  c #279A50",
"U  c #269D51",
"Y  c #289B51",
"T  c #289C51",
"R  c #26A152",
"E  c #26A553",
"W  c #27A654",
"Q  c #24AA54",
"!  c #23AD55",
"~  c #24AE56",
"^  c #23B457",
"/  c #21B857",
"(  c #22B958",
")  c #21BF59",
"_  c #1FD05E",
"`  c #21C25B",
"'  c #21C65C",
"]  c #20C85C",
"[  c #20C95C",
"{  c #20CC5D",
"}  c #20D05E",
"|  c #1ED760",
" . c #818181",
".. c #848484",
"X. c #898989",
"o. c #8E8E8E",
"O. c #A2A2A2",
"+. c #A4A4A4",
"@. c gray67",
"#. c gray75",
"$. c #C1C1C1",
"%. c gray89",
"&. c gray92",
"*. c gray93",
"=. c gray95",
"-. c #F6F6F6",
";. c gray98",
":. c white",
/* pixels */
":.:.;.=.*.*.*.*.*.*.*.*.*.*.*.*.*.*.*.*.*.*.*.*.*.*.*.*.=.;.:.:.",
":.-.*.*.*.*.*.*.*.*.*.*.*.*.*.*.*.*.*.*.*.*.*.*.*.*.*.*.*.*.-.:.",
";.*.&.o.>                                             > o.&.*.;.",
"=.*...                                                    ..*.=.",
"&.*.: @ : : : : 7 H 6 : : : : : : : : : : : : : : : : : @ : *.&.",
"*.*.@ : : : : u ` L : : : : : : : : : : : : : : : : : : : @ *.*.",
"*.*.% : : : r [ l : : : : : : : : : : : : : : : : : : : : : *.*.",
"*.*.: : : 5 ` j : : G n : : : : : : : : : : : : : : : : : : *.*.",
"*.*.: : : T G : - W n : : : : : : : : : : : : : : i L : : : *.*.",
"*.*.: : i ' ; : L n : : : : : : : : : : : : : 2 : ; [ e : : *.*.",
"*.*.% % Y M % t R % % % % % % % 9 M Q ` % % % I t % C U % % *.*.",
"*.*.% - [ 4 % R 9 % % % % - G ` | | | | % % % e R % 4 { = % *.*.",
"*.*.% y ^ % ; ~ % % % % % p | | } E c ' % % % % ~ - % ( y % *.*.",
"*.*.% x U % y G % % % % % a ^ k - % % ` % % % % G i % U x % *.*.",
"*.*.% V D % f c % % % % % a J % % % % ) % % % % v s % L m % *.*.",
"*.*.% v G % s v @ @ % % % a J % 3 ^ [ _ @ @ % % v f % G m % *.*.",
"*.*.% z I % w D % % % * j Z J % D | | | % % % % G q % R h % *.*.",
"*.*.@ q / @ * ! @ @ @ Q | | J @ c | | ( @ @ @ @ ! * @ ^ q @ *.*.",
"*.*.@ # { 1 @ U < @ @ _ | | S @ $ c S 3 @ @ @ 8 U @ 3 [ $ @ *.*.",
"*.*.@ @ P b @ 0 K @ @ Z | [ < @ @ @ @ @ @ @ @ R < @ b K @ @ *.*.",
"*.*.@ @ < [ * @ * @ @ @ 1 # @ @ @ @ @ @ @ @ c S @ * ' 0 @ @ *.*.",
"*.*.@ @ @ S 0 @ @ @ @ @ @ @ @ @ @ @ @ @ @ c R @ @ S K @ @ @ *.*.",
"*.*.@ @ @ @ @ @ @ @ @ @ @ @ @ @ @ @ @ @ c A @ @ g ` + @ @ @ *.*.",
"*.*.@ @ @ @ @ @ @ @ @ . @ @ @ @ @ @ X X @ @ @ d [ , @ @ @ @ *.*.",
"*.*.. . . . . . . . . . . . . . . . . . . X S ) < . . . . . *.*.",
"%.*.N . . @ . . . . . . . . . . . . . . . o A O . . . . . N *.%.",
"$.*.... . . . . . . . . . . . . . . . . . . . . . . . . . ..*.#.",
"o.*.&...N . . . . . . . . . . . . . . . . . . . . . . N ..&.*.X.",
" .O.*.*.*.*.*.*.*.*.*.*.*.*.*.*.*.*.*.*.*.*.*.*.*.*.*.*.*.*.O. .",
"+.B o.$.%.*.*.*.*.*.*.*.*.*.*.*.*.*.*.*.*.*.*.*.*.*.*.%.$.o.B +.",
"&... . ...........X.X.X.X.X.X.X.X.X.X.X.X.X.X........... . .X.=.",
":.=.@.X...........X.X.X.X.X.X.X.X.X.X.X.X.X.X...........X.@.=.:."
};
